<svg xmlns="http://www.w3.org/2000/svg" viewBox="0 0 24 24"><path d="m0 0h24v24h-24z" fill="#fff" opacity="0" fill-rule="evenodd"
    clip-rule="evenodd"/><path d="m20.12 6.71-2.83-2.83a3 3 0 0 0 -2.12-.88h-6.34a3 3 0 0 0 -2.12.88l-2.83 2.83a3 3 0 0 0 -.88 2.12v9.17a3 3 0 0 0 3 3h12a3 3 0 0 0 3-3v-9.17a3 3 0 0 0 -.88-2.12zm-8.12 9.29a4 4 0 0 1 -4-4 1 1 0 0 1 2 0 2 2 0 0 0 4 0 1 1 0 0 1 2 0 4 4 0 0 1 -4 4zm-5.59-9 1.71-1.71a1.05 1.05 0 0 1 .71-.29h6.34a1.05 1.05 0 0 1 .71.29l1.71 1.71z" fill="#39478e"/></svg>