<svg xmlns="http://www.w3.org/2000/svg" x="0px" y="0px" width="100" height="100" viewBox="0 0 32 32"
style="fill:#FA5252;">
<path d="M 13 5 L 12.728516 5.8164062 C 12.492516 6.5224062 11.830937 7 11.085938 7 L 4 7 L 4 8.5 C 5.258 8.8 6.1901719 9.8604844 6.3261719 11.146484 L 7.9941406 27 L 24.005859 27 L 25.673828 11.146484 C 25.809828 9.8604844 26.742 8.8 28 8.5 L 28 7 L 20.914062 7 C 20.169062 7 19.507484 6.5224062 19.271484 5.8164062 L 19 5 L 13 5 z M 8.2167969 10 L 23.783203 10 L 22.099609 26 L 9.9003906 26 L 8.2167969 10 z"></path>
</svg>